<?xml version="1.0" encoding="utf-8"?>
<!-- Generator: Adobe Illustrator 16.0.0, SVG Export Plug-In . SVG Version: 6.00 Build 0)  -->
<!DOCTYPE svg PUBLIC "-//W3C//DTD SVG 1.1//EN" "http://www.w3.org/Graphics/SVG/1.1/DTD/svg11.dtd">
<svg version="1.1" id="path" xmlns="http://www.w3.org/2000/svg" xmlns:xlink="http://www.w3.org/1999/xlink" x="0px" y="0px"
	 width="170.555px" height="269.443px" viewBox="0 0 170.555 269.443" enable-background="new 0 0 170.555 269.443"
	 xml:space="preserve">
<g>
	<path class="path" id="bordo" fill="none" stroke="#000000" stroke-width="2" stroke-miterlimit="10" d="M77.477,110.37
		c2.063-1.686,2.021-2.02-0.21-3.042c-0.333-0.153-0.59-0.483-0.862-0.75c-2.772-2.721-5.572-5.413-8.279-8.197
		c-0.417-0.429-0.73-1.432-0.518-1.913c0.66-1.48-0.289-2.231-1.175-2.832c-1.788-1.211-1.115-2.132,0.005-3.333
		c0.734-0.787,1.217-1.838,1.696-2.826c0.408-0.842,0.509-1.854,1.001-2.629c0.789-1.246,1.202-2.379,1.229-3.981
		c0.046-2.542-0.447-4.905-0.867-7.357c-0.563-3.297-1.762-4.421-4.935-3.82c-1.331,0.252-2.71,0.303-4.009,0.657
		c-1.385,0.378-2.7,1.008-4.046,1.528c0.273-0.156,0.549-0.313,0.824-0.47c-1.169-0.748-2.53-1.314-3.456-2.293
		c-1.145-1.208-2.534-2.682-2.727-4.18c-0.312-2.457-1.324-2.083-2.902-1.527c-5.186,1.826-10.407,3.545-15.573,5.421
		c-3.403,1.234-6.691,2.792-10.106,3.986c-5.034,1.762-10.166,3.249-15.201,5.005c-3.034,1.06-3.226,2.531-1.182,5.177
		c0.655,0.848,1.046,2.033,1.192,3.114c0.352,2.607,0.487,5.245,0.743,8.239c3.444-0.792,6.772,0.835,10.253-0.087
		c0.905-0.24,2.141,0.544,3.16,1.002c1.369,0.615,2.668,1.389,4.015,2.058c1.081,0.537,2.559,0.735,3.212,1.583
		c1.702,2.208,3.869,2.148,6.306,2.403c2.365,0.247,5.247,1.012,6.721,2.627c1.209,1.327,2.137,1.457,3.49,1.551
		c0.287,0.021,0.57,0.094,1.282,0.215c-0.72,1.37-1.335,2.538-1.99,3.783c2.094,3.207,3.128,6.188,1.812,8.766
		c0.306,1.241,0.792,2.682,0.327,3.679c-1.351,2.892-0.688,5.702,0.08,8.412c0.599,2.113,0.219,3.312-2.034,3.988
		c0.368,0.854,0.912,1.552,0.896,2.235c-0.017,0.677-0.624,1.932-0.929,1.918c-2.865-0.123-2.375,1.755-2.052,3.269
		c0.916,0.619,1.899,1.309,1.961,2.07c0.084,1.062-0.539,2.177-0.828,3.276c-0.151,0.576-0.444,1.223-0.311,1.744
		c0.305,1.19,0.833,2.325,1.312,3.589c0.272-0.02,0.846-0.246,1.146-0.051c1.645,1.071,1.724,4.411,0.276,5.833
		c-0.66,0.649-1.48,1.404-1.654,2.23c-0.604,2.885-1.589,5.304-4.68,6.391c-0.479,0.168-0.754,1.335-0.852,2.076
		c-0.198,1.491,0.34,3.423-0.416,4.428c-1.392,1.852-1.374,3.258-0.25,4.569c-5.783,6.19-11.461,12.27-17.149,18.357
		c1.041,3.251,2.128,6.484,3.109,9.751c0.942,3.144-0.135,6.837,2.606,9.51c0.22,0.213,0.066,0.768,0.189,1.126
		c0.248,0.729,0.387,1.608,0.885,2.121c2.868,2.955,3.248,6.773,3.705,10.524c0.308,2.531,0.341,5.104,0.357,7.66
		c0.013,2.006-0.104,4.021-0.315,6.018c-0.247,2.312-0.787,4.598-0.936,6.911c-0.051,0.783,0.725,1.61,1.09,2.431
		c0.437,0.979,1.119,1.951,1.205,2.968c0.295,3.467,0.374,6.95,0.546,10.642c3.779,0,7.304,0,10.999,0
		c0.343-3.775,0.688-7.568,1.031-11.362c-0.158-0.042-0.317-0.084-0.478-0.126c-0.295,0.859-0.591,1.719-1.054,3.063
		c-1.55-1.805-2.886-3.357-4.072-4.738c0.95-1.452,2.038-2.567,2.469-3.896c0.722-2.225,2.015-3.838,3.979-4.934
		c2.368-1.321,4.708-2.759,7.216-3.752c6.266-2.479,12.534-5.017,18.965-6.999c5.302-1.634,8.331-5.46,10.914-9.789
		c0.941-1.577,0.902-3.739,1.311-5.635c-0.221-0.113-0.44-0.228-0.661-0.34c-0.936,0.866-1.869,1.731-2.775,2.571
		c1.157-5.092,2.362-10.39,3.654-16.069c-2.973-3.582,1.076-8.487-1.254-12.77c-0.443,0.593-0.854,1.139-1.38,1.843
		c-0.384-0.506-0.77-0.779-0.8-1.089c-0.479-4.834-1.152-9.573-4.036-13.739c-0.614-0.89-0.962-2.439-0.634-3.418
		c1.02-3.042-0.242-5.786-3.336-6.261c0.74-2.527-1.956-1.604-2.708-2.606c0.347-0.405,0.839-0.729,0.918-1.131
		c0.141-0.712-0.085-1.492,0.043-2.208c0.209-1.158,0.841-2.289,0.826-3.427c-0.027-2.211,0.932-4.751-1.562-6.391
		c-0.023-0.016,0.099-0.253,0.23-0.584c1.165,1.017,2.279,1.99,3.389,2.959c4.882-2.613,8.153-6.997,11.9-10.907
		c1.533-1.601,3.734-2.604,5.722-3.717c1.947-1.091,5.222-0.435,5.146-4.075c-0.001-0.056,0.097-0.114,0.148-0.172
		c2.381-2.567,4.801-5.1,7.108-7.729c0.55-0.626,0.724-1.582,1.14-2.548c0.377-0.277,1.043-0.663,1.578-1.185
		c0.772-0.753,1.311-1.832,2.192-2.375c3.951-2.431,8.001-4.701,11.982-7.082c0.684-0.408,1.212-1.074,1.669-1.492
		c0.483,0.054,1.022,0.267,1.463,0.138c3.307-0.979,6.6-2.001,9.882-3.059c1.137-0.366,2.368-0.67,3.316-1.341
		c1.598-1.127,2.915-2.649,4.512-3.779c2.133-1.511,4.419-2.806,6.584-4.159c-0.294-0.951-0.515-1.663-0.726-2.348
		c0.623-0.542,1.239-1.447,1.633-1.357c2.188,0.49,2.305-1.464,3.115-2.493c0.961-1.221,1.677-2.63,2.57-3.908
		c1.84-2.631,3.775-5.197,5.561-7.864c0.394-0.586,0.32-1.483,0.481-2.339c-0.971,0.139-1.564,0.224-2.593,0.371
		c1.546-1.482,2.715-2.603,3.917-3.755c-0.521-0.333-0.883-0.567-0.969-0.622c0.839-0.956,2.016-1.692,2.167-2.602
		c0.278-1.652-0.053-3.406-0.13-5.118c-0.181-0.125-0.361-0.25-0.543-0.375c-0.715,0.778-1.431,1.559-2.146,2.338
		c-0.123-0.051-0.247-0.103-0.371-0.152c0.564-1.769,1.132-3.539,1.636-5.112c-1.205-0.102-2.04-0.172-2.821-0.237
		c0.55-1.274,1.207-2.083,1.169-2.856c-0.089-1.721-0.565-3.42-0.806-5.138c-0.189-1.366-0.339-2.748-0.36-4.124
		c-0.017-0.936,0.265-1.869,0.33-2.811c0.104-1.45,0.146-2.905,0.188-4.36c0.003-0.084-0.221-0.174-0.463-0.354
		c-0.317,0.391-0.636,0.781-1.158,1.422c-2.214-3.409,2.655-2.668,2.364-4.711c-0.706-1.408-1.413-2.818-1.809-3.604
		c-0.203-6.074-0.353-11.644-0.636-17.206c-0.03-0.601-0.84-1.163-1.362-1.838c0.476-0.59,1.032-1.13,1.399-1.778
		c0.507-0.894,1.439-2.492,1.201-2.709c-1.698-1.553,0.022-2.22,0.691-3.12c-0.554-0.487-1.028-0.907-1.566-1.384
		c0.66-0.545,1.148-0.949,1.524-1.26c-0.457-1.112-0.846-2.058-1.31-3.186c-1.434,0.832-3.129,1.332-4.089,2.458
		c-3.86,4.532-10.283,4.577-14.441,8.502c-0.178,0.167-0.607,0.208-0.864,0.127c-3.298-1.025-6.255,0.527-8.599,2.152
		c-2.294,1.59-3.553,1.336-5.588-0.031c-2.533-1.7-6.027-0.457-6.382,2.236c-0.283,2.152-1.937,2.358-3.208,3.171
		c-0.486,0.312-1.195,0.26-1.717,0.538c-1.076,0.572-5.25,0.398-6.211-0.343c-1.802-1.391-3.725-1.314-5.427,0.153
		c-0.396,0.343-0.923,0.757-1.393,0.762c-2.153,0.02-4.312-0.047-6.458-0.214c-0.29-0.023-0.596-0.761-0.771-1.213
		c-1.14-2.944-4.989-3.696-7.261-1.581c-0.709,0.659-2.01,0.92-3.051,0.946c-4.086,0.104-8.177,0.043-12.241,0.043
		c-0.92,2.278-1.755,4.615-2.801,6.854c-1.075,2.302-1.274,4.538-0.505,6.984c1.333,4.231,1.721,8.579,1.321,13.019
		c-0.155,1.736,0.583,3.081,2.647,2.844c1.726-0.198,2.976,0.397,4.018,1.742c3.745,4.83,7.424,9.719,11.334,14.413
		c2.47,2.965,3.179,5.946,1.454,9.454c-0.258,0.524-0.532,1.267-0.357,1.746c1.402,3.841,0.366,7.683,0.121,11.52
		c-0.127,1.973-2.947,4.02-4.84,3.363c-1.843-0.639-2.351,0.642-2.817,1.74c-0.737,1.734-1.21,3.582-1.877,5.63
		c3.396,1.711,1.005,5.188,2.087,8.244C79.635,112.022,77.836,112.999,77.477,110.37z"/>
</g>
</svg>
